<svg class="icon" viewBox="0 0 1024 1024" xmlns="http://www.w3.org/2000/svg">
  <path d="M512 992c-102.727111 0-182.499556-134.528-211.84-320h65.180444C391.111111 820.579556 450.659556 923.420444 512 923.420444s120.888889-102.840889 146.659556-251.392h65.180444C694.499556 857.472 614.712889 992 512 992z m0-960c96.711111 0 173.112889 119.267556 206.179556 288h-65.735112C624.128 188.899556 568.860444 100.608 512 100.608s-112.128 88.32-140.487111 219.448889h-65.664C338.915556 151.253333 415.288889 32 512 32z" fill="#EEEEEE"/>
  <path d="M96 320h832v48H96V320z m0 336h832V704H96v-48z" fill="#EEEEEE"/>
  <path d="M118.727111 440.647111l40.277333 137.144889a19.939556 19.939556 0 0 0 19.114667 14.307556c8.775111 0 16.469333-5.916444 18.744889-14.407112l29.44-110.421333a0.64 0.64 0 0 1 1.223111 0l29.269333 110.520889a19.2 19.2 0 0 0 18.56 14.307556c8.803556 0 16.512-5.76 19.015112-14.179556l40.504888-137.315556a11.776 11.776 0 0 0-11.292444-15.104c-9.258667 0-17.351111 6.286222-19.626667 15.274667l-27.989333 110.976a0.64 0.64 0 0 1-0.611556 0.440889 0.64 0.64 0 0 1-0.568888-0.440889l-29.824-112.298667a18.773333 18.773333 0 0 0-36.295112 0l-29.824 112.298667a0.64 0.64 0 0 1-0.64 0.440889 0.64 0.64 0 0 1-0.568888-0.440889l-28.003556-110.976a20.224 20.224 0 0 0-19.626667-15.274667 11.776 11.776 0 0 0-11.278222 15.104v0.042667z" fill="#007EFD"/>
  <path d="M323.584 419.271111c12.032 0 20.679111 11.562667 17.28 23.096889l-40.533333 137.272889a26.026667 26.026667 0 0 1-24.974223 18.688 25.457778 25.457778 0 0 1-24.604444-18.944L226.872889 489.244444l-23.992889 90.055112a25.671111 25.671111 0 0 1-20.963556 18.744888l-3.811555 0.284445a26.140444 26.140444 0 0 1-25.088-18.773333l-40.32-137.187556a18.019556 18.019556 0 0 1 17.322667-23.111111c12.117333 0 22.712889 8.234667 25.656888 19.968l22.684445 89.927111 24.263111-91.306667a25.031111 25.031111 0 0 1 20.48-18.289777l3.712-0.284445c11.320889 0 21.248 7.608889 24.163556 18.588445l24.248888 91.320888 22.727112-89.912888a26.453333 26.453333 0 0 1 22.044444-19.754667l3.584-0.256z m0 12.472889a13.994667 13.994667 0 0 0-13.568 10.552889L282.012444 553.244444a6.840889 6.840889 0 0 1-13.283555 0.099556l-29.824-112.284444a12.544 12.544 0 0 0-24.220445 0l-29.824 112.284444a6.855111 6.855111 0 0 1-13.283555-0.099556l-27.989333-110.933333a13.980444 13.980444 0 0 0-13.568-10.567111 5.575111 5.575111 0 0 0-5.319112 7.111111l40.248889 137.173333c1.735111 5.831111 7.082667 9.827556 13.155556 9.827556 5.987556 0 11.207111-3.996444 12.743111-9.756444l29.44-110.435556a6.855111 6.855111 0 0 1 13.240889 0l29.297778 110.520889c1.493333 5.688889 6.641778 9.671111 12.529777 9.671111a13.568 13.568 0 0 0 13.027556-9.699556l40.504889-137.315555a5.546667 5.546667 0 0 0-5.304889-7.096889z m33.635556 7.708444v138.695112a13.966222 13.966222 0 0 0 27.932444 0v-59.776h86.4v59.776a13.966222 13.966222 0 1 0 27.932444 0v-138.695112a13.966222 13.966222 0 1 0-27.932444 0v55.580445h-86.4V439.466667a13.966222 13.966222 0 1 0-27.932444 0z" fill="#007EFD"/>
  <path d="M485.504 419.271111c11.164444 0 20.195556 9.045333 20.195556 20.195556v138.666666a20.195556 20.195556 0 1 1-40.391112 0v-53.560889H391.395556v53.575112a20.195556 20.195556 0 0 1-16.924445 19.925333l-3.271111 0.256a20.195556 20.195556 0 0 1-20.195556-20.195556V439.466667a20.195556 20.195556 0 0 1 40.391112 0v49.336889h73.912888v-49.351112a20.195556 20.195556 0 0 1 16.924445-19.939555l3.271111-0.256z m0 12.472889a7.751111 7.751111 0 0 0-7.708444 7.708444v61.824h-98.887112V439.466667a7.751111 7.751111 0 1 0-15.459555 0v138.695111a7.736889 7.736889 0 1 0 15.459555 0v-66.019556h98.887112v66.019556a7.751111 7.751111 0 0 0 15.445333 0v-138.695111a7.751111 7.751111 0 0 0-7.736889-7.708445z m123.036444-9.500444c-26.24 0-46.791111 8.149333-61.568 24.96-14.336 15.872-21.248 36.380444-21.248 61.824 0 25.216 6.912 45.752889 21.248 61.596444 14.791111 16.312889 35.328 24.746667 61.582223 24.746667 25.998222 0 46.506667-8.177778 61.553777-24.490667 14.336-15.644444 21.475556-36.167111 21.475556-61.866667 0-25.656889-7.139556-46.392889-21.447111-62.065777-15.032889-16.554667-35.584-24.704-61.582222-24.704z m0 23.992888c17.664 0 31.260444 5.404444 40.803556 16.611556 9.315556 11.192889 14.08 26.552889 14.08 46.179556 0 19.612444-4.764444 34.773333-14.08 45.752888-9.528889 10.951111-23.139556 16.540444-40.803556 16.540445-17.664 0-31.516444-5.816889-41.059555-17.28-9.272889-11.192889-13.824-26.112-13.824-45.013333 0-19.143111 4.522667-34.048 13.824-45.255112 9.799111-11.676444 23.395556-17.493333 41.059555-17.493333v-0.042667z" fill="#007EFD"/>
  <path d="M608.540444 416c27.776 0 49.948444 8.903111 66.176 26.752 15.431111 16.839111 23.111111 39.111111 23.111112 66.275556 0 27.136-7.68 49.180444-23.139556 66.076444-16.256 17.664-38.471111 26.496-66.133333 26.496-27.818667 0-50.090667-8.988444-66.218667-26.780444-15.303111-16.967111-22.855111-38.954667-22.855111-65.792 0-27.036444 7.537778-49.024 22.826667-65.92 15.957333-18.147556 38.144-27.107556 66.232888-27.107556z m0 12.487111c-24.704 0-43.420444 7.537778-56.96 22.869333-13.112889 14.592-19.626667 33.564444-19.626666 57.671112 0 23.893333 6.513778 42.88 19.626666 57.429333 13.639111 15.047111 32.540444 22.656 56.96 22.656 24.32 0 43.207111-7.480889 56.96-22.456889 13.255111-14.435556 19.84-33.479111 19.84-57.6 0-24.220444-6.627556-43.491556-19.84-57.912889-13.752889-15.146667-32.540444-22.656-56.96-22.656z m0 11.548445c19.527111 0 34.816 6.172444 45.596445 18.816 10.382222 12.472889 15.530667 29.297778 15.530667 50.176 0 20.864-5.12 37.504-15.616 49.820444-10.808889 12.487111-26.211556 18.716444-45.511112 18.716444-19.427556 0-35.043556-6.556444-45.852444-19.512888-10.268444-12.387556-15.260444-28.672-15.260444-49.024 0-20.508444 4.977778-36.864 15.288888-49.28 11.036444-13.127111 26.439111-19.712 45.824-19.712z m0 12.472888c-15.872 0-27.704889 5.063111-36.266666 15.232-8.277333 9.984-12.401778 23.495111-12.401778 41.287112 0 17.592889 4.152889 31.104 12.416 41.059555 8.32 9.912889 20.380444 15.032889 36.266667 15.032889 15.857778 0 27.761778-4.864 36.053333-14.407111 8.32-9.784889 12.600889-23.580444 12.600889-41.685333 0-18.147556-4.309333-32.156444-12.600889-42.140445-8.192-9.642667-19.996444-14.407111-36.067556-14.407111v0.028444z m109.312-13.056v138.695112a13.952 13.952 0 0 0 27.904 0v-138.695112a13.952 13.952 0 0 0-27.904 0z" fill="#007EFD"/>
  <path d="M731.832889 419.271111a20.195556 20.195556 0 0 1 20.167111 20.195556v138.666666a20.195556 20.195556 0 0 1-40.391111 0V439.466667a20.195556 20.195556 0 0 1 20.195555-20.167111l0.028445-0.042667z m0 12.472889c-4.266667 0-7.722667 3.441778-7.736889 7.708444v138.695112a7.751111 7.751111 0 0 0 15.459556 0v-138.695112a7.736889 7.736889 0 0 0-7.751112-7.708444h0.028445z m107.52-9.500444c-18.389333 0-33.422222 3.968-45.368889 12.117333-12.899556 8.391111-19.100444 20.067556-19.100444 34.759111 0 14.72 6.456889 25.912889 19.584 33.592889 5.020444 2.816 18.133333 7.495111 39.125333 14.023111 18.887111 5.603556 29.824 9.344 33.194667 10.979556 10.496 5.12 16 12.117333 16 20.992 0 6.997333-3.84 12.344889-11.008 16.568888-7.139556 3.982222-17.194667 6.087111-29.582223 6.087112-14.08 0-24.348444-2.602667-31.032889-7.267556-7.395556-5.376-10.467556-8.832-12.344888-21.432889 0-6.215111-4.650667-9.344-13.994667-9.344s-13.909333 3.128889-13.696 9.344c1.194667 21.233778 7.594667 31.032889 21.902222 40.789333 11.704889 7.936 28.16 11.904 49.180445 11.904 21.688889 0 38.656-4.408889 50.56-12.8 11.960889-8.632889 17.92-20.536889 17.92-35.512888 0-15.36-7.395556-27.264-22.215112-35.911112-6.656-3.740444-21.432889-9.344-44.600888-16.312888-15.744-4.935111-25.543111-8.419556-29.127112-10.268445-8.120889-4.224-11.946667-10.055111-11.946666-17.066667 0-7.936 3.342222-13.752889 10.510222-17.28 5.76-3.000889 13.852444-4.408889 24.576-4.408888 12.416 0 21.944889 2.104889 28.16 6.784 6.200889 4.408889 10.268444 8.476444 12.657778 18.744888 1.479111 5.831111 6.314667 8.704 14.506666 8.704 8.192 0 12.572444-2.872889 13.184-8.704-1.664-18.204444-8.120889-28.316444-20.053333-36.963555-11.207111-8.149333-26.951111-12.16-47.018667-12.16l0.028445 0.042667z" fill="#007EFD"/>
  <path d="M839.352889 416c21.376 0 38.314667 4.352 50.631111 13.312 14.051556 10.140444 20.864 22.272 22.613333 42.666667-0.952889 9.429333-8.305778 14.293333-19.384889 14.293333-10.808889 0-18.304-4.48-20.579555-13.539556-1.749333-7.580444-4.024889-10.680889-10.325333-15.203555-4.807111-3.584-12.942222-5.504-24.419556-5.504-9.927111 0-17.066667 1.28-21.831111 3.811555-4.892444 2.375111-7.04 5.916444-7.04 11.662223 0 4.664889 2.56 8.405333 8.618667 11.52 3.2 1.692444 13.141333 5.176889 28.017777 9.813333 22.542222 6.826667 38.314667 12.643556 45.994667 16.924444 16.64 9.728 25.272889 23.651556 25.272889 41.287112 0 16.952889-6.940444 30.72-20.536889 40.576-13.226667 9.301333-31.488 13.980444-54.186667 13.980444-22.186667 0-39.822222-4.266667-52.693333-12.984889-16.64-11.406222-23.367111-23.367111-24.604444-45.767111-0.327111-10.424889 7.480889-15.744 19.925333-15.744 12.387556 0 20.266667 5.248 20.167111 14.620444 1.507556 9.955556 2.944 12.359111 9.756444 17.28 5.603556 3.911111 14.819556 6.087111 27.448889 6.087112 11.335111 0 20.394667-1.848889 26.453334-5.191112 5.518222-3.271111 7.893333-6.741333 7.893333-11.192888 0-6.144-3.868444-11.207111-12.487111-15.402667-3.2-1.564444-14.848-5.432889-32.312889-10.609778-21.703111-6.755556-34.816-11.463111-40.448-14.606222-14.976-8.760889-22.613333-21.973333-22.613333-38.968889 0-16.952889 7.352889-30.492444 21.774222-39.907556 12.999111-8.888889 29.226667-13.212444 48.867555-13.212444h0.028445z m0 12.487111c-17.28 0-31.104 3.640889-41.984 11.093333-11.008 7.168-16.256 16.839111-16.256 29.539556 0 12.544 5.319111 21.660444 16.384 28.16 4.408889 2.488889 17.194667 7.04 37.888 13.468444 18.147556 5.404444 30.08 9.386667 34.119111 11.363556 12.572444 6.144 19.512889 15.175111 19.512889 26.552889 0 9.287111-4.977778 16.64-14.208 22.044444-8.248889 4.579556-19.328 6.855111-32.64 6.855111-14.933333 0-26.552889-2.744889-34.645333-8.405333-9.571556-6.954667-12.871111-12.259556-14.947556-26.538667 0-2.076444-1.436444-3.072-7.751111-3.072-6.229333 0-7.537778 0.896-7.480889 2.759112 1.024 18.403556 5.76 26.808889 19.2 35.996444 10.496 7.139556 25.756444 10.808889 45.653333 10.808889 20.337778 0 36.124444-4.024889 46.947556-11.648 10.24-7.424 15.303111-17.436444 15.303111-30.392889 0-13.084444-6.115556-22.983111-19.015111-30.492444-6.528-3.655111-21.660444-9.244444-43.420445-15.843556-15.672889-4.864-26.026667-8.519111-30.151111-10.666667-9.912889-5.12-15.288889-12.942222-15.288889-22.584889 0-10.396444 4.807111-18.332444 13.824-22.755555 6.727111-3.555556 15.687111-5.176889 27.52-5.176889 13.923556 0 24.547556 2.531556 31.772445 7.936 8.519111 6.087111 12.586667 11.676444 15.047111 22.300444 0.711111 2.730667 2.872889 4.039111 8.476444 4.039112 5.319111 0 6.755556-0.967111 6.968889-1.92-1.422222-15.644444-6.4-24.462222-17.493333-32.512-9.955556-7.239111-24.391111-10.908444-43.363556-10.908445h0.028445z" fill="#007EFD"/>
  <path d="M512 32c265.088 0 480 214.912 480 480S777.088 992 512 992 32 777.088 32 512 246.912 32 512 32z m0 64C282.24 96 96 282.24 96 512S282.24 928 512 928 928 741.76 928 512 741.76 96 512 96z" fill="#EEEEEE"/>
</svg>
